<?xml version="1.0"?>
<svg xmlns="http://www.w3.org/2000/svg" xmlns:xlink="http://www.w3.org/1999/xlink" xmlns:svgjs="http://svgjs.com/svgjs" version="1.1" width="512" height="512" x="0" y="0" viewBox="0 0 512 512" style="enable-background:new 0 0 512 512" xml:space="preserve"><g><linearGradient xmlns="http://www.w3.org/2000/svg" id="SVGID_1_" gradientUnits="userSpaceOnUse" x1="256" x2="256" y1="481" y2="31"><stop stop-opacity="1" stop-color="#ff650d" offset="0"/><stop stop-opacity="1" stop-color="#ffc8ab" offset="0.5386100386100386"/><stop stop-opacity="1" stop-color="#ffffff" offset="1"/></linearGradient><g xmlns="http://www.w3.org/2000/svg"><g><path d="m502.839 62.179c-1.795-.759-3.768-1.179-5.839-1.179h-302.973l-15.547-23.321c-2.781-4.172-7.464-6.679-12.48-6.679h-151c-8.284 0-15 6.716-15 15v420c0 8.284 6.716 15 15 15h482c8.284 0 15-6.716 15-15v-390c0-6.213-3.778-11.544-9.161-13.821zm-20.839 388.821h-452v-390h127.973c5.269 7.904 50.147 75.221 55.547 83.321 2.781 4.173 7.465 6.679 12.48 6.679h256zm0-330h-247.973l-20-30h267.973zm-271 75v75h-15c-6.067 0-11.536 3.655-13.858 9.26-2.321 5.605-1.038 12.057 3.252 16.347l60 60c2.928 2.929 6.767 4.393 10.606 4.393s7.678-1.464 10.606-4.393l60-60c4.29-4.29 5.573-10.742 3.252-16.347-2.322-5.605-7.791-9.26-13.858-9.26h-15v-75c0-8.284-6.716-15-15-15h-60c-8.284 0-15 6.716-15 15zm30 90v-75h30v75c0 6.432 4.049 11.919 9.736 14.051l-24.736 24.736-24.736-24.736c5.687-2.132 9.736-7.619 9.736-14.051zm-60 90c0-8.284-6.716-15-15-15s-15 6.716-15 15v30c0 8.284 6.716 15 15 15h180c8.284 0 15-6.716 15-15v-30c0-8.284-6.716-15-15-15s-15 6.716-15 15v15h-150z" fill="url(#SVGID_1_)" data-original="url(#SVGID_1_)" style=""/></g></g></g></svg>
